<?xml version="1.0" standalone="no"?>
<!DOCTYPE svg PUBLIC "-//W3C//DTD SVG 20010904//EN"
 "http://www.w3.org/TR/2001/REC-SVG-20010904/DTD/svg10.dtd">
<svg version="1.0" xmlns="http://www.w3.org/2000/svg"
 width="711.000000pt" height="782.000000pt" viewBox="0 0 711.000000 782.000000"
 preserveAspectRatio="xMidYMid meet">
<g transform="translate(0.000000,782.000000) scale(0.100000,-0.100000)"
fill="#000000" stroke="none">
<path d="M3365 7809 c-735 -36 -1442 -306 -2030 -775 -151 -120 -431 -402
-553 -557 -369 -465 -620 -1017 -718 -1582 -51 -292 -48 -142 -51 -2597 l-3
-2288 1315 0 1315 0 0 1310 0 1310 915 0 915 0 0 -1310 0 -1310 1315 0 1315 0
-3 2292 c-3 2538 2 2335 -68 2680 -258 1277 -1226 2327 -2484 2692 -273 80
-523 121 -830 136 -104 5 -192 9 -195 8 -3 0 -72 -4 -155 -9z m562 -474 c566
-71 1098 -293 1545 -646 132 -104 413 -386 508 -509 185 -240 349 -528 454
-796 84 -216 132 -396 179 -664 21 -125 21 -126 24 -2187 l3 -2063 -309 0
-310 0 -4 2003 c-3 1838 -5 2011 -21 2117 -84 560 -322 1038 -706 1420 -391
389 -869 624 -1430 701 -53 8 -187 13 -305 13 -221 0 -321 -9 -520 -51 -722
-150 -1362 -652 -1690 -1328 -108 -222 -168 -406 -218 -670 -21 -109 -21 -131
-24 -2157 l-3 -2048 -315 0 -315 0 3 2058 3 2057 22 135 c76 464 237 879 484
1250 137 206 208 292 402 486 542 540 1198 836 1991 898 98 8 432 -4 552 -19z
m-120 -1080 c314 -41 593 -147 868 -330 283 -188 506 -442 663 -755 122 -241
187 -465 212 -726 5 -61 10 -382 10 -731 l0 -623 -314 0 -315 0 -4 683 c-3
645 -4 687 -24 772 -65 285 -199 524 -402 717 -189 180 -412 297 -673 355
-118 25 -428 25 -546 0 -279 -61 -498 -181 -697 -381 -199 -200 -313 -410
-377 -694 -21 -94 -22 -121 -25 -774 l-4 -678 -315 0 -315 0 4 693 c5 746 5
753 62 978 92 364 309 729 580 975 320 292 704 469 1130 523 115 14 355 12
482 -4z m-70 -1090 c178 -35 327 -117 463 -254 98 -99 154 -182 203 -301 63
-154 61 -123 65 -852 l3 -668 -916 0 -916 0 3 668 3 667 28 88 c53 170 136
306 254 417 223 211 507 293 810 235z m-1557 -3615 l0 -1080 -315 0 -315 0 0
1080 0 1080 315 0 315 0 0 -1080z m3380 0 l0 -1080 -315 0 -315 0 0 1080 0
1080 315 0 315 0 0 -1080z"/>
</g>
</svg>